<?xml version="1.0" encoding="UTF-8"?>
<svg id="_圖層_1" data-name="圖層_1" xmlns="http://www.w3.org/2000/svg" version="1.1" viewBox="0 0 595.28 86.51">
  <!-- Generator: Adobe Illustrator 29.8.2, SVG Export Plug-In . SVG Version: 2.1.1 Build 3)  -->
  <defs>
    <style>
      .st0 {
        fill: #a02727;
      }

      .st1 {
        fill: #db1d1d;
      }

      .st2 {
        fill: #c41010;
      }

      .st3 {
        fill: #f4f4f4;
      }

      .st4 {
        fill: #ef5252;
      }
    </style>
  </defs>
  <g>
    <path class="st0" d="M207.6,71.53h-16.37v-21.83h-5.41v-10.85h-5.41v-16.24h16.24v10.83h5.45v10.89h.1v-21.72h16.24v16.24h-5.41v10.85h-5.41v21.83ZM196.51,66.25h5.8v-16.63h-5.51v-10.89h-5.45v-10.83h-5.67v5.67h5.41v10.85h5.41v21.83ZM207.47,44.42h.26v-10.85h5.41v-5.67h-5.67v16.52Z"/>
    <path class="st0" d="M245.56,71.53h-16.24v-38.09h-10.89v-10.83h38.03v10.83h-10.89v38.09ZM234.6,66.25h5.67V28.16h10.89v-.26h-27.46v.26h10.89v38.09Z"/>
    <path class="st0" d="M278.17,55.23h-21.65v-10.83h21.65v10.83ZM261.8,49.94h11.09v-.26h-11.09v.26Z"/>
    <path class="st0" d="M327.09,71.53h-16.24l-.06-21.79v10.89h-16.24v10.89h-10.83V22.62h16.24v10.89h5.38l.03,10.89v-10.89h5.48v-10.89h16.24v48.92ZM316.13,66.25h5.67V27.9h-5.67v10.89h-5.48v5.67h5.48v21.79ZM289,66.25h.26v-21.79h10.57v10.89h5.67v-5.67h-5.45v-10.89h-5.38v-10.89h-5.67v38.35Z"/>
    <path class="st0" d="M365.18,71.53h-27.13v-5.48h-5.41v-32.55h16.24v27.2h5.48v-27.2h16.24v32.55h-5.41v5.48ZM343.33,66.25h16.57v-5.48h5.41v-21.98h-5.67v27.2h-16.05v-27.2h-5.67v21.98h5.41v5.48Z"/>
    <path class="st0" d="M397.79,71.53h-21.66v-10.83l10.83-.06h-5.41v-5.45l-5.41-.07v-16.21h5.41v-5.41h21.72v10.83l-10.89.06h5.41v5.38l5.48-.07v16.34h-5.48v5.48ZM381.42,66.25h11.09v-5.48h5.48v-5.71l-5.48.07v-5.44h-5.41v-10.63h10.89v-.26h-11.15v5.41h-5.41v5.71l5.41.07v5.38h5.41v10.63h-10.83v.26Z"/>
    <path class="st0" d="M446.71,71.53h-16.24l-.07-27.2v5.41h-5.41v21.79h-16.24V22.62h16.24l.06,16.31v-5.41h16.24v5.41h5.41v32.61ZM435.76,66.25h5.67v-22.05h-5.41v-5.41h-5.67v.26h5.41v27.2ZM414.04,66.25h5.67v-21.79h5.41v-.26h-5.41v-16.31h-5.67v38.35Z"/>
    <path class="st0" d="M484.8,71.53h-27.13v-5.48h-5.41v-27.13h5.41v-5.41h27.13v5.41h5.41v10.83h-5.41v5.41h5.41v10.89h-5.41v5.48ZM462.95,66.25h16.57v-.26h-16.31v-10.7h5.41v-.26h-5.41v-15.98h16.05v10.63h-5.41v.19h5.67v-5.41h5.41v-.26h-5.41v-5.41h-16.57v5.41h-5.41v16.57h5.41v5.48ZM484.67,60.77h.26v-.33h-.26v.33ZM468.5,60.71h10.89v-5.54h-5.48v5.41h-5.41v.13ZM468.5,49.75h.06v-5.35l5.41-.06h-5.48v5.41Z"/>
    <path class="st0" d="M512,71.53h-16.24V22.62h16.24v48.92ZM501.04,66.25h5.67V27.9h-5.67v38.35Z"/>
    <path class="st0" d="M533.72,71.53h-16.24V22.62h16.24v48.92ZM522.76,66.25h5.67V27.9h-5.67v38.35Z"/>
    <path class="st0" d="M138.17,71.51h-66.62v-10.7h6.99v-13.98h6.99v-13.98h6.99v-6.99h6.99v-6.99h6.99v-6.99h17.69v10.7h-6.99v3.28h6.99v20.97h6.99v13.98h6.99v10.7ZM75.27,67.8h59.19v-3.28h-6.99v-13.98h-6.99v-20.97h-6.99v-10.7h6.99v-3.28h-10.27v6.99h-6.99v6.99h-6.99v6.99h-6.99v13.98h-6.99v13.98h-6.99v3.28Z"/>
  </g>
  <g>
    <g>
      <path class="st3" d="M210.37,36.21v10.85h-5.41v21.83h-11.09v-21.83h-5.41v-10.85h-5.41v-10.96h10.96v10.83h5.45v10.89h5.38v-21.72h10.96v10.96h-5.41Z"/>
      <path class="st3" d="M242.92,30.8v38.09h-10.96V30.8h-10.89v-5.54h32.74v5.54h-10.89Z"/>
      <path class="st3" d="M259.16,52.59v-5.54h16.37v5.54h-16.37Z"/>
      <path class="st3" d="M313.49,68.89v-21.79h-5.35v10.89h-10.96v-10.89h-5.28v21.79h-5.54V25.26h10.96v10.89h5.38v10.89h5.32v-10.89h5.48v-10.89h10.96v43.64h-10.96Z"/>
      <path class="st3" d="M362.54,63.41v5.48h-21.85v-5.48h-5.41v-27.26h10.96v27.2h10.76v-27.2h10.96v27.26h-5.41Z"/>
      <path class="st3" d="M395.15,63.41v5.48h-16.37v-5.54h10.83v-5.35h-5.41v-5.41l-5.41-.07v-10.96h5.41v-5.41h16.44v5.54h-10.89v5.35h5.41v5.41l5.48-.07v11.02h-5.48Z"/>
      <path class="st3" d="M433.11,68.89v-27.2h-5.35v5.41h-5.41v21.79h-10.96V25.26h10.96v16.31h5.35v-5.41h10.96v5.41h5.41v27.33h-10.96Z"/>
      <path class="st3" d="M482.16,63.41v5.48h-21.85v-5.48h-5.41v-21.85h5.41v-5.41h21.85v5.41h5.41v5.54h-5.41v5.41h-10.89v5.41h-5.41v5.41h16.18v-5.54h5.54v5.61h-5.41ZM476.62,41.69h-10.76v10.7h5.35v-5.35h5.41v-5.35Z"/>
      <path class="st3" d="M498.4,68.89V25.26h10.96v43.64h-10.96Z"/>
      <path class="st3" d="M520.12,68.89V25.26h10.96v43.64h-10.96Z"/>
    </g>
    <g>
      <rect class="st1" x="101.37" y="27.72" width="6.99" height="6.99" transform="translate(136.07 -73.65) rotate(90)"/>
      <rect class="st1" x="108.36" y="27.72" width="6.99" height="6.99" transform="translate(143.06 -80.64) rotate(90)"/>
      <rect class="st1" x="101.37" y="34.7" width="6.99" height="6.99" transform="translate(143.06 -66.67) rotate(90)"/>
      <rect class="st1" x="94.38" y="34.7" width="6.99" height="6.99" transform="translate(136.07 -59.68) rotate(90)"/>
      <rect class="st1" x="108.36" y="34.7" width="6.99" height="6.99" transform="translate(150.05 -73.65) rotate(90)"/>
      <rect class="st1" x="115.35" y="34.7" width="6.99" height="6.99" transform="translate(157.04 -80.64) rotate(90)"/>
      <rect class="st1" x="101.37" y="41.69" width="6.99" height="6.99" transform="translate(150.05 -59.68) rotate(90)"/>
      <rect class="st1" x="94.38" y="41.69" width="6.99" height="6.99" transform="translate(143.06 -52.69) rotate(90)"/>
      <rect class="st1" x="108.36" y="41.69" width="6.99" height="6.99" transform="translate(157.04 -66.67) rotate(90)"/>
      <rect class="st1" x="115.35" y="41.69" width="6.99" height="6.99" transform="translate(164.03 -73.65) rotate(90)"/>
      <rect class="st1" x="101.37" y="48.68" width="6.99" height="6.99" transform="translate(157.04 -52.69) rotate(90)"/>
      <rect class="st1" x="94.38" y="48.68" width="6.99" height="6.99" transform="translate(150.05 -45.7) rotate(90)"/>
      <rect class="st1" x="87.39" y="48.68" width="6.99" height="6.99" transform="translate(143.06 -38.71) rotate(90)"/>
      <rect class="st1" x="108.36" y="48.68" width="6.99" height="6.99" transform="translate(164.03 -59.68) rotate(90)"/>
      <rect class="st1" x="115.35" y="48.68" width="6.99" height="6.99" transform="translate(171.02 -66.67) rotate(90)"/>
      <rect class="st1" x="122.34" y="48.68" width="6.99" height="6.99" transform="translate(178.01 -73.65) rotate(90)"/>
      <rect class="st2" x="101.37" y="55.67" width="6.99" height="6.99" transform="translate(164.03 -45.7) rotate(90)"/>
      <rect class="st1" x="94.38" y="55.67" width="6.99" height="6.99" transform="translate(157.04 -38.71) rotate(90)"/>
      <rect class="st1" x="87.39" y="55.67" width="6.99" height="6.99" transform="translate(150.05 -31.72) rotate(90)"/>
      <rect class="st2" x="108.36" y="55.67" width="6.99" height="6.99" transform="translate(171.02 -52.69) rotate(90)"/>
      <rect class="st4" x="115.35" y="55.67" width="6.99" height="6.99" transform="translate(178.01 -59.68) rotate(90)"/>
      <rect class="st2" x="122.34" y="55.67" width="6.99" height="6.99" transform="translate(185 -66.67) rotate(90)"/>
      <rect class="st3" x="101.37" y="62.66" width="6.99" height="6.99" transform="translate(171.02 -38.71) rotate(90)"/>
      <rect class="st3" x="94.38" y="62.66" width="6.99" height="6.99" transform="translate(164.03 -31.72) rotate(90)"/>
      <rect class="st3" x="87.39" y="62.66" width="6.99" height="6.99" transform="translate(157.04 -24.73) rotate(90)"/>
      <rect class="st3" x="80.4" y="62.66" width="6.99" height="6.99" transform="translate(150.05 -17.74) rotate(90)"/>
      <rect class="st2" x="94.38" y="27.72" width="6.99" height="6.99" transform="translate(129.09 -66.67) rotate(90)"/>
      <rect class="st1" x="101.37" y="20.73" width="6.99" height="6.99" transform="translate(129.09 -80.64) rotate(90)"/>
      <rect class="st1" x="101.37" y="20.73" width="6.99" height="6.99" transform="translate(129.09 -80.64) rotate(90)"/>
      <rect class="st1" x="108.36" y="20.73" width="6.99" height="6.99" transform="translate(136.07 -87.63) rotate(90)"/>
      <rect class="st4" x="115.35" y="27.72" width="6.99" height="6.99" transform="translate(150.05 -87.63) rotate(90)"/>
      <rect class="st3" x="108.36" y="13.74" width="6.99" height="6.99" transform="translate(129.09 -94.62) rotate(90)"/>
      <rect class="st3" x="108.36" y="13.74" width="6.99" height="6.99" transform="translate(129.09 -94.62) rotate(90)"/>
      <rect class="st3" x="115.35" y="13.74" width="6.99" height="6.99" transform="translate(136.07 -101.61) rotate(90)"/>
      <rect class="st2" x="87.39" y="34.7" width="6.99" height="6.99" transform="translate(129.09 -52.69) rotate(90)"/>
      <rect class="st4" x="87.39" y="41.69" width="6.99" height="6.99" transform="translate(136.07 -45.7) rotate(90)"/>
      <rect class="st1" x="80.4" y="48.68" width="6.99" height="6.99" transform="translate(136.07 -31.72) rotate(90)"/>
      <rect class="st2" x="80.4" y="55.67" width="6.99" height="6.99" transform="translate(143.06 -24.73) rotate(90)"/>
      <rect class="st3" x="73.41" y="62.66" width="6.99" height="6.99" transform="translate(143.06 -10.75) rotate(90)"/>
      <rect class="st3" x="108.36" y="62.66" width="6.99" height="6.99" transform="translate(178.01 -45.7) rotate(90)"/>
      <rect class="st3" x="115.35" y="62.66" width="6.99" height="6.99" transform="translate(185 -52.69) rotate(90)"/>
      <rect class="st3" x="122.34" y="62.66" width="6.99" height="6.99" transform="translate(191.99 -59.68) rotate(90)"/>
      <rect class="st3" x="129.33" y="62.66" width="6.99" height="6.99" transform="translate(198.98 -66.67) rotate(90)"/>
    </g>
  </g>
</svg>